<svg width="84" height="84" viewBox="0 0 84 84" fill="none" xmlns="http://www.w3.org/2000/svg">
<path fill-rule="evenodd" clip-rule="evenodd" d="M42 78C61.8823 78 78 61.8823 78 42C78 22.1177 61.8823 6 42 6C22.1177 6 6 22.1177 6 42C6 61.8823 22.1177 78 42 78ZM42 84C65.196 84 84 65.196 84 42C84 18.804 65.196 0 42 0C18.804 0 0 18.804 0 42C0 65.196 18.804 84 42 84Z" fill="black"/>
<path fill-rule="evenodd" clip-rule="evenodd" d="M42 53C35.6657 53 32.2517 56.6062 30.6048 59.4884C29.7827 60.927 27.9502 61.4268 26.5116 60.6047C25.0731 59.7827 24.5733 57.9501 25.3953 56.5116C27.7483 52.3938 32.8703 47 42 47C51.236 47 55.7854 52.5382 58.4412 56.2563C59.4043 57.6045 59.092 59.4782 57.7437 60.4412C56.3955 61.4042 54.5219 61.092 53.5588 59.7437C51.2146 56.4618 48.2281 53 42 53Z" fill="black"/>
<path d="M33 32C33 34.7614 30.7614 37 28 37C25.2386 37 23 34.7614 23 32C23 29.2386 25.2386 27 28 27C30.7614 27 33 29.2386 33 32Z" fill="black"/>
<path d="M61 32C61 34.7614 58.7614 37 56 37C53.2386 37 51 34.7614 51 32C51 29.2386 53.2386 27 56 27C58.7614 27 61 29.2386 61 32Z" fill="black"/>
</svg>
